<svg xmlns="http://www.w3.org/2000/svg" width="420" height="420" viewBox="0 0 420 420">
  <defs>
    <linearGradient id="bg" x1="0" y1="0" x2="1" y2="1">
      <stop offset="0%" stop-color="#16a34a"/>
      <stop offset="100%" stop-color="#22c55e"/>
    </linearGradient>
    <filter id="shadow" x="-20%" y="-20%" width="140%" height="140%">
      <feDropShadow dx="0" dy="18" stdDeviation="18" flood-color="#0f172a" flood-opacity="0.22"/>
    </filter>
  </defs>
  <rect width="420" height="420" rx="72" fill="url(#bg)"/>
  <circle cx="330" cy="70" r="92" fill="white" opacity="0.16"/>
  <circle cx="70" cy="360" r="110" fill="white" opacity="0.12"/>
  <g filter="url(#shadow)">
    <circle cx="210" cy="150" r="72" fill="#f8fafc"/>
    <path d="M116 336c14-74 52-110 94-110s80 36 94 110" fill="#f8fafc"/>
    <path d="M140 332c10-56 36-84 70-84s60 28 70 84" fill="#dbeafe"/>
    <rect x="162" y="246" width="96" height="82" rx="20" fill="#ffffff"/>
    <path d="M182 252l28 38 28-38" fill="#2563eb" opacity="0.9"/>
    <circle cx="186" cy="146" r="8" fill="#0f172a"/>
    <circle cx="234" cy="146" r="8" fill="#0f172a"/>
    <path d="M184 180c18 18 36 18 54 0" stroke="#0f172a" stroke-width="8" stroke-linecap="round" fill="none"/>
    <rect x="128" y="90" width="164" height="48" rx="24" fill="#ffffff"/>
    <rect x="194" y="68" width="32" height="88" rx="10" fill="#ffffff"/>
  </g>
  <circle cx="210" cy="324" r="38" fill="#ffffff" opacity="0.95"/>
  <text x="210" y="338" font-family="Arial, sans-serif" font-size="38" font-weight="800" text-anchor="middle" fill="#16a34a">V</text>
</svg>