<svg xmlns="http://www.w3.org/2000/svg" width="760" height="460" viewBox="0 0 760 460">
  <defs>
    <linearGradient id="sky" x1="0" y1="0" x2="1" y2="1">
      <stop offset="0%" stop-color="#db2777"/>
      <stop offset="100%" stop-color="#f9a8d4"/>
    </linearGradient>
    <linearGradient id="glass" x1="0" y1="0" x2="1" y2="1">
      <stop offset="0%" stop-color="#ffffff" stop-opacity="0.98"/>
      <stop offset="100%" stop-color="#e0f2fe" stop-opacity="0.96"/>
    </linearGradient>
    <filter id="shadow">
      <feDropShadow dx="0" dy="20" stdDeviation="18" flood-color="#0f172a" flood-opacity="0.22"/>
    </filter>
  </defs>
  <rect width="760" height="460" rx="44" fill="url(#sky)"/>
  <circle cx="630" cy="80" r="100" fill="#ffffff" opacity="0.15"/>
  <circle cx="120" cy="380" r="130" fill="#ffffff" opacity="0.12"/>
  <path d="M0 350 C140 310 240 390 380 345 C520 300 620 350 760 315 L760 460 L0 460 Z" fill="#ffffff" opacity="0.18"/>
  <g filter="url(#shadow)">
    <rect x="160" y="138" width="440" height="230" rx="28" fill="url(#glass)"/>
    <rect x="218" y="188" width="70" height="72" rx="14" fill="#db2777" opacity="0.85"/>
    <rect x="326" y="188" width="70" height="72" rx="14" fill="#db2777" opacity="0.85"/>
    <rect x="434" y="188" width="70" height="72" rx="14" fill="#db2777" opacity="0.85"/>
    <rect x="337" y="282" width="86" height="86" rx="18" fill="#db2777"/>
    <path d="M380 302v46M357 325h46" stroke="#ffffff" stroke-width="14" stroke-linecap="round"/>
    <rect x="238" y="92" width="284" height="70" rx="24" fill="#ffffff"/>
    <path d="M380 108v38M361 127h38" stroke="#db2777" stroke-width="12" stroke-linecap="round"/>
  </g>
  <text x="380" y="420" font-family="Arial, sans-serif" font-size="32" font-weight="800" text-anchor="middle" fill="#ffffff" opacity="0.95">CLINIC 15</text>
</svg>